<svg width="42" height="42" viewBox="0 0 42 42" fill="none" xmlns="http://www.w3.org/2000/svg">
<circle cx="21" cy="21" r="21" fill="#69746D"/>
<rect x="5" y="6" width="31" height="31" stroke="black"/>
<path d="M30.8333 33.125V30.5417C30.8333 29.1714 30.289 27.8572 29.32 26.8883C28.3511 25.9193 27.037 25.375 25.6667 25.375H15.3333C13.963 25.375 12.6489 25.9193 11.6799 26.8883C10.711 27.8572 10.1667 29.1714 10.1667 30.5417V33.125M25.6667 15.0417C25.6667 17.8951 23.3535 20.2083 20.5 20.2083C17.6465 20.2083 15.3333 17.8951 15.3333 15.0417C15.3333 12.1882 17.6465 9.875 20.5 9.875C23.3535 9.875 25.6667 12.1882 25.6667 15.0417Z" stroke="#B3B3B3" stroke-width="2" stroke-linecap="round" stroke-linejoin="round"/>
<path d="M30.8333 33.125V30.5417C30.8333 29.1714 30.289 27.8572 29.32 26.8883C28.3511 25.9193 27.037 25.375 25.6667 25.375H15.3333C13.963 25.375 12.6489 25.9193 11.6799 26.8883C10.711 27.8572 10.1667 29.1714 10.1667 30.5417V33.125M25.6667 15.0417C25.6667 17.8951 23.3535 20.2083 20.5 20.2083C17.6465 20.2083 15.3333 17.8951 15.3333 15.0417C15.3333 12.1882 17.6465 9.875 20.5 9.875C23.3535 9.875 25.6667 12.1882 25.6667 15.0417Z" stroke="white" stroke-opacity="0.2" stroke-width="2" stroke-linecap="round" stroke-linejoin="round"/>
</svg>
